<svg width="128" height="128" viewBox="0 0 128 128" fill="none" xmlns="http://www.w3.org/2000/svg">
  <rect width="128" height="128" rx="32" fill="#162039"/>
  <path d="M88 39C82.4 33.6667 74.8 31 65.2 31C53.7333 31 44.5333 34.3333 37.6 41C30.6667 47.6667 27.2 56.3333 27.2 67C27.2 77.2667 30.4 85.5333 36.8 91.8C43.3333 98.0667 52.0667 101.2 63 101.2C73.2667 101.2 81.7333 98.4 88.4 92.8L78.4 81.6C74.1333 84.9333 68.8667 86.6 62.6 86.6C56.0667 86.6 50.8 84.8667 46.8 81.4C42.8 77.8 40.8 72.9333 40.8 66.8C40.8 60.2667 42.9333 55.1333 47.2 51.4C51.6 47.5333 57.2 45.6 64 45.6C70.1333 45.6 75.0667 47.1333 78.8 50.2L88 39Z" fill="#FFF8EE"/>
  <path d="M91.25 29L95.0833 38.9167L105 42.75L95.0833 46.5833L91.25 56.5L87.4167 46.5833L77.5 42.75L87.4167 38.9167L91.25 29Z" fill="#16B097"/>
  <circle cx="92" cy="89" r="10" fill="#EA6A3A"/>
</svg>
