<svg width="820" height="980" viewBox="0 0 820 980" fill="none" xmlns="http://www.w3.org/2000/svg">
  <rect width="820" height="980" rx="56" fill="#F7F0E8"/>
  <rect x="190" y="60" width="440" height="860" rx="56" fill="#162039"/>
  <rect x="333" y="85" width="154" height="24" rx="12" fill="#0E172C"/>
  <rect x="220" y="138" width="380" height="752" rx="34" fill="#FFF8EE"/>
  <rect x="250" y="180" width="118" height="20" rx="10" fill="#E5DDD0"/>
  <rect x="250" y="214" width="216" height="48" rx="24" fill="#162039"/>
  <rect x="484" y="214" width="84" height="48" rx="24" fill="#16B097"/>
  <rect x="250" y="302" width="270" height="178" rx="28" fill="#162039"/>
  <rect x="274" y="328" width="100" height="14" rx="7" fill="#6B7591"/>
  <rect x="274" y="358" width="124" height="52" rx="18" fill="#FFF8EE"/>
  <rect x="250" y="508" width="148" height="154" rx="24" fill="#EA6A3A"/>
  <rect x="420" y="508" width="148" height="154" rx="24" fill="#DFF4EE"/>
  <rect x="250" y="688" width="318" height="88" rx="28" fill="#EEF4FF"/>
  <circle cx="553" cy="625" r="22" fill="#16B097"/>
  <circle cx="352" cy="586" r="44" fill="#16B097"/>
  <path d="M326 586L344 604L381 567" stroke="#162039" stroke-width="10" stroke-linecap="round" stroke-linejoin="round"/>
  <rect x="274" y="712" width="90" height="12" rx="6" fill="#A5ADC4"/>
  <rect x="274" y="736" width="182" height="12" rx="6" fill="#C3C9D9"/>
  <rect x="518" y="696" width="24" height="72" rx="12" fill="#162039"/>
  <circle cx="518" cy="718" r="8" fill="#FFF8EE"/>
  <circle cx="518" cy="746" r="8" fill="#FFF8EE"/>
  <rect x="74" y="168" width="176" height="124" rx="24" fill="#FFF8EE"/>
  <rect x="98" y="194" width="66" height="12" rx="6" fill="#16B097"/>
  <rect x="98" y="224" width="116" height="12" rx="6" fill="#C3C9D9"/>
  <rect x="98" y="248" width="92" height="12" rx="6" fill="#C3C9D9"/>
  <rect x="570" y="704" width="184" height="140" rx="24" fill="#FFF8EE"/>
  <rect x="596" y="734" width="70" height="12" rx="6" fill="#EA6A3A"/>
  <rect x="596" y="764" width="112" height="12" rx="6" fill="#C3C9D9"/>
  <rect x="596" y="788" width="88" height="12" rx="6" fill="#C3C9D9"/>
</svg>
